<mxfile host="drawio-plugin" modified="2023-02-17T21:15:25.290Z" agent="5.0 (Windows NT 6.2; Win64; x64) AppleWebKit/537.36 (KHTML, like Gecko) Chrome/97.0.4692.45 Safari/537.36" etag="vM6X6E6l-ArpseFiP_9T" version="20.5.3" type="embed"><diagram name="Страница-1" id="FGZBimYPFsbu8MYtwAO9"><mxGraphModel dx="432" dy="363" grid="1" gridSize="10" guides="1" tooltips="1" connect="1" arrows="1" fold="1" page="1" pageScale="1" pageWidth="827" pageHeight="1169" math="0" shadow="0"><root><mxCell id="0"/><mxCell id="1" parent="0"/><mxCell id="9RgpDACBN7Vw9N7DFi5e-1" value="" style="endArrow=classic;html=1;rounded=0;strokeWidth=2;" parent="1" edge="1"><mxGeometry x="1" y="-10" width="50" height="50" relative="1" as="geometry"><mxPoint x="200" y="280" as="sourcePoint"/><mxPoint x="440" y="280" as="targetPoint"/><mxPoint as="offset"/></mxGeometry></mxCell><mxCell id="9RgpDACBN7Vw9N7DFi5e-3" value="&lt;font style=&quot;font-size: 25px;&quot;&gt;t&lt;/font&gt;" style="edgeLabel;html=1;align=center;verticalAlign=middle;resizable=0;points=[];fontSize=12;labelBackgroundColor=none;" parent="9RgpDACBN7Vw9N7DFi5e-1" vertex="1" connectable="0"><mxGeometry x="0.8521" relative="1" as="geometry"><mxPoint x="8" y="-20" as="offset"/></mxGeometry></mxCell><mxCell id="9RgpDACBN7Vw9N7DFi5e-2" value="" style="endArrow=none;html=1;rounded=0;" parent="1" edge="1"><mxGeometry width="50" height="50" relative="1" as="geometry"><mxPoint x="220" y="280" as="sourcePoint"/><mxPoint x="220" y="230" as="targetPoint"/></mxGeometry></mxCell><mxCell id="9RgpDACBN7Vw9N7DFi5e-4" value="" style="endArrow=none;html=1;rounded=0;" parent="1" edge="1"><mxGeometry width="50" height="50" relative="1" as="geometry"><mxPoint x="316" y="279.9999999999999" as="sourcePoint"/><mxPoint x="316" y="230" as="targetPoint"/></mxGeometry></mxCell><mxCell id="9RgpDACBN7Vw9N7DFi5e-5" value="" style="endArrow=none;html=1;rounded=0;" parent="1" edge="1"><mxGeometry width="50" height="50" relative="1" as="geometry"><mxPoint x="360" y="279.9999999999999" as="sourcePoint"/><mxPoint x="360" y="230" as="targetPoint"/></mxGeometry></mxCell><mxCell id="9RgpDACBN7Vw9N7DFi5e-6" value="" style="endArrow=none;html=1;rounded=0;" parent="1" edge="1"><mxGeometry width="50" height="50" relative="1" as="geometry"><mxPoint x="400" y="279.9999999999999" as="sourcePoint"/><mxPoint x="400" y="230" as="targetPoint"/></mxGeometry></mxCell><mxCell id="9RgpDACBN7Vw9N7DFi5e-7" value="&lt;p style=&quot;line-height: 100%; font-size: 11px;&quot;&gt;Релак-&lt;/p&gt;&lt;p style=&quot;line-height: 100%; font-size: 11px;&quot;&gt;сация&lt;/p&gt;" style="text;html=1;align=center;verticalAlign=middle;resizable=0;points=[];autosize=1;strokeColor=none;fillColor=none;fontSize=11;" parent="1" vertex="1"><mxGeometry x="350" y="220" width="60" height="70" as="geometry"/></mxCell><mxCell id="9RgpDACBN7Vw9N7DFi5e-8" value="&lt;p style=&quot;line-height: 100%; font-size: 11px;&quot;&gt;Обуче-&lt;/p&gt;&lt;p style=&quot;line-height: 100%; font-size: 11px;&quot;&gt;ние&lt;/p&gt;" style="text;html=1;align=center;verticalAlign=middle;resizable=0;points=[];autosize=1;strokeColor=none;fillColor=none;fontSize=11;" parent="1" vertex="1"><mxGeometry x="308" y="220" width="60" height="70" as="geometry"/></mxCell><mxCell id="9RgpDACBN7Vw9N7DFi5e-9" value="&lt;p style=&quot;line-height: 100%; font-size: 11px;&quot;&gt;Активиране&lt;/p&gt;&lt;p style=&quot;line-height: 100%; font-size: 11px;&quot;&gt;WTA&lt;/p&gt;" style="text;html=1;align=center;verticalAlign=middle;resizable=0;points=[];autosize=1;strokeColor=none;fillColor=none;fontSize=11;" parent="1" vertex="1"><mxGeometry x="235" y="220" width="80" height="70" as="geometry"/></mxCell><mxCell id="9RgpDACBN7Vw9N7DFi5e-10" value="t&lt;sub&gt;1&lt;/sub&gt;" style="text;html=1;align=center;verticalAlign=middle;resizable=0;points=[];autosize=1;strokeColor=none;fillColor=none;fontSize=11;" parent="1" vertex="1"><mxGeometry x="260" y="200" width="30" height="30" as="geometry"/></mxCell><mxCell id="9RgpDACBN7Vw9N7DFi5e-11" value="t&lt;font size=&quot;1&quot;&gt;&lt;sub&gt;2&lt;/sub&gt;&lt;/font&gt;" style="text;html=1;align=center;verticalAlign=middle;resizable=0;points=[];autosize=1;strokeColor=none;fillColor=none;fontSize=11;" parent="1" vertex="1"><mxGeometry x="323" y="200" width="30" height="30" as="geometry"/></mxCell><mxCell id="9RgpDACBN7Vw9N7DFi5e-12" value="t&lt;sub&gt;3&lt;/sub&gt;" style="text;html=1;align=center;verticalAlign=middle;resizable=0;points=[];autosize=1;strokeColor=none;fillColor=none;fontSize=11;" parent="1" vertex="1"><mxGeometry x="365" y="200" width="30" height="30" as="geometry"/></mxCell></root></mxGraphModel></diagram></mxfile>